<?xml version="1.0" encoding="UTF-8"?>
<svg id="Warstwa_1" xmlns="http://www.w3.org/2000/svg" version="1.1" viewBox="0 0 100 100">
  <!-- Generator: Adobe Illustrator 30.4.0, SVG Export Plug-In . SVG Version: 2.1.4 Build 226)  -->
  <defs>
    <style>
      .st0 {
        fill: none;
        stroke: #000;
        stroke-miterlimit: 10;
      }
    </style>
  </defs>
  <g id="_x3C_Powtarzanie_promieniowe_x3E_">
    <polygon class="st0" points="48.2 54.2 46.6 58.6 49.9 69.1 53.3 58.6 51.8 54.2 48.2 54.2"/>
    <polyline class="st0" points="57.4 60.5 49.9 69.1 42.7 60.5"/>
  </g>
  <g id="_x3C_Powtarzanie_promieniowe_x3E_1" data-name="_x3C_Powtarzanie_promieniowe_x3E_">
    <polygon class="st0" points="45.7 51.7 41.5 53.7 36.4 63.5 46.3 58.4 48.3 54.2 45.7 51.7"/>
    <polyline class="st0" points="47.7 62.7 36.4 63.5 37.4 52.3"/>
  </g>
  <g id="_x3C_Powtarzanie_promieniowe_x3E_2" data-name="_x3C_Powtarzanie_promieniowe_x3E_">
    <polygon class="st0" points="45.8 48.2 41.4 46.6 30.9 49.9 41.4 53.3 45.8 51.8 45.8 48.2"/>
    <polyline class="st0" points="39.5 57.4 30.9 49.9 39.5 42.7"/>
  </g>
  <g id="_x3C_Powtarzanie_promieniowe_x3E_3" data-name="_x3C_Powtarzanie_promieniowe_x3E_">
    <polygon class="st0" points="48.3 45.7 46.3 41.5 36.5 36.4 41.6 46.3 45.8 48.3 48.3 45.7"/>
    <polyline class="st0" points="37.3 47.7 36.5 36.4 47.7 37.4"/>
  </g>
  <g id="_x3C_Powtarzanie_promieniowe_x3E_4" data-name="_x3C_Powtarzanie_promieniowe_x3E_">
    <polygon class="st0" points="51.8 45.8 53.4 41.4 50.1 30.9 46.7 41.4 48.2 45.8 51.8 45.8"/>
    <polyline class="st0" points="42.6 39.5 50.1 30.9 57.3 39.5"/>
  </g>
  <g id="_x3C_Powtarzanie_promieniowe_x3E_5" data-name="_x3C_Powtarzanie_promieniowe_x3E_">
    <polygon class="st0" points="54.3 48.3 58.5 46.3 63.6 36.5 53.7 41.6 51.7 45.8 54.3 48.3"/>
    <polyline class="st0" points="52.3 37.3 63.6 36.5 62.6 47.7"/>
  </g>
  <g id="_x3C_Powtarzanie_promieniowe_x3E_6" data-name="_x3C_Powtarzanie_promieniowe_x3E_">
    <polygon class="st0" points="54.2 51.8 58.6 53.4 69.1 50.1 58.6 46.7 54.2 48.2 54.2 51.8"/>
    <polyline class="st0" points="60.5 42.6 69.1 50.1 60.5 57.3"/>
  </g>
  <g id="_x3C_Powtarzanie_promieniowe_x3E_7" data-name="_x3C_Powtarzanie_promieniowe_x3E_">
    <polygon class="st0" points="51.7 54.3 53.7 58.5 63.5 63.6 58.4 53.7 54.2 51.7 51.7 54.3"/>
    <polyline class="st0" points="62.7 52.3 63.5 63.6 52.3 62.6"/>
  </g>
</svg>