<?xml version="1.0" encoding="UTF-8"?>
<svg id="Warstwa_1" xmlns="http://www.w3.org/2000/svg" version="1.1" viewBox="0 0 110 110">
  <!-- Generator: Adobe Illustrator 30.4.0, SVG Export Plug-In . SVG Version: 2.1.4 Build 226)  -->
  <defs>
    <style>
      .st0 {
        fill: #d0c8aa;
      }

      .st1 {
        fill: #f7936a;
      }

      .st2 {
        fill: #f7c86a;
      }

      .st3 {
        fill: none;
        stroke: #000;
        stroke-miterlimit: 10;
        stroke-width: 2px;
      }

      .st4 {
        fill: #a8c8b4;
      }

      .st5 {
        fill: #c4c8b4;
      }

      .st6 {
        fill: #94a2a8;
      }

      .st7 {
        fill: #f46742;
      }

      .st8 {
        fill: #f7931e;
      }

      .st9 {
        fill: #ccc8b4;
      }
    </style>
  </defs>
  <polygon class="st6" points="83 74.6 89.1 69.1 89.1 60.5 78.3 63.9 83 74.6"/>
  <polygon class="st5" points="83 35.3 89.1 40.7 89.1 49.4 78.3 45.9 83 35.3"/>
  <polygon class="st4" points="26.8 74.6 20.8 69.2 20.8 60.5 31.6 64 26.8 74.6"/>
  <polygon class="st6" points="26.8 35.4 20.8 40.8 20.8 49.5 31.6 46 26.8 35.4"/>
  <polygon class="st5" points="34.7 82.9 40.2 89 48.8 89 45.4 78.2 34.7 82.9"/>
  <polygon class="st4" points="75.3 82.9 69.8 89 61.2 89 64.6 78.2 75.3 82.9"/>
  <polygon class="st6" points="35.3 26.6 40.7 20.5 49.4 20.5 45.9 31.3 35.3 26.6"/>
  <polygon class="st4" points="75.8 27.5 70.4 21.4 61.7 21.4 65.2 32.2 75.8 27.5"/>
  <polygon class="st6" points="66.8 59.9 78.1 65.3 91.8 91.9 65.2 78.2 59.8 66.9 66.8 59.9"/>
  <polygon class="st4" points="43.2 59.9 31.9 65.3 18.2 91.9 44.8 78.2 50.2 66.9 43.2 59.9"/>
  <polygon class="st7" points="59.9 43.2 64.1 31.4 55.1 2.8 45.9 31.3 50.1 43.2 59.9 43.2"/>
  <polygon class="st8" points="59 66.2 63.3 78 54.3 106.6 45.1 78.1 49.2 66.2 59 66.2"/>
  <polygon class="st1" points="42.9 59.9 31 64.1 2.5 55 31 45.9 42.9 50.1 42.9 59.9"/>
  <polygon class="st2" points="67.3 59.9 79.2 64.1 107.7 55 79.2 45.9 67.3 50.1 67.3 59.9"/>
  <polygon class="st0" points="67.2 50 78.5 44.6 92.3 18 65.7 31.7 60.3 43.1 67.2 50"/>
  <polygon class="st9" points="43.7 50 32.3 44.6 18.6 18 45.2 31.7 50.6 43.1 43.7 50"/>
  <g>
    <g id="_x3C_Powtarzanie_promieniowe_x3E_">
      <polygon class="st3" points="50 66.3 45.8 78.1 54.8 106.7 64 78.2 59.9 66.4 50 66.3"/>
      <polyline class="st3" points="74.9 83.5 54.8 106.7 35.2 83.5"/>
    </g>
    <g id="_x3C_Powtarzanie_promieniowe_x3E_1" data-name="_x3C_Powtarzanie_promieniowe_x3E_">
      <polygon class="st3" points="43.5 59.5 32.2 64.9 18.3 91.4 45 77.8 50.4 66.5 43.5 59.5"/>
      <polyline class="st3" points="48.9 89.2 18.3 91.4 20.8 61.1"/>
    </g>
    <g id="_x3C_Powtarzanie_promieniowe_x3E_2" data-name="_x3C_Powtarzanie_promieniowe_x3E_">
      <polygon class="st3" points="43.7 50 31.9 45.8 3.3 54.8 31.8 64 43.6 59.9 43.7 50"/>
      <polyline class="st3" points="26.5 74.9 3.3 54.8 26.5 35.2"/>
    </g>
    <g id="_x3C_Powtarzanie_promieniowe_x3E_3" data-name="_x3C_Powtarzanie_promieniowe_x3E_">
      <polygon class="st3" points="50.5 43.5 45.1 32.2 18.6 18.3 32.2 45 43.5 50.4 50.5 43.5"/>
      <polyline class="st3" points="20.8 48.9 18.6 18.3 48.9 20.8"/>
    </g>
    <g id="_x3C_Powtarzanie_promieniowe_x3E_4" data-name="_x3C_Powtarzanie_promieniowe_x3E_">
      <polygon class="st3" points="60 43.7 64.2 31.9 55.2 3.3 46 31.8 50.1 43.6 60 43.7"/>
      <polyline class="st3" points="35.1 26.5 55.2 3.3 74.8 26.5"/>
    </g>
    <g id="_x3C_Powtarzanie_promieniowe_x3E_5" data-name="_x3C_Powtarzanie_promieniowe_x3E_">
      <polygon class="st3" points="66.5 50.5 77.8 45.1 91.7 18.6 65 32.2 59.6 43.5 66.5 50.5"/>
      <polyline class="st3" points="61.1 20.8 91.7 18.6 89.2 48.9"/>
    </g>
    <g id="_x3C_Powtarzanie_promieniowe_x3E_6" data-name="_x3C_Powtarzanie_promieniowe_x3E_">
      <polygon class="st3" points="66.3 60 78.1 64.2 106.7 55.2 78.2 46 66.4 50.1 66.3 60"/>
      <polyline class="st3" points="83.5 35.1 106.7 55.2 83.5 74.8"/>
    </g>
    <g id="_x3C_Powtarzanie_promieniowe_x3E_7" data-name="_x3C_Powtarzanie_promieniowe_x3E_">
      <polygon class="st3" points="59.5 66.5 64.9 77.8 91.4 91.7 77.8 65 66.5 59.6 59.5 66.5"/>
      <polyline class="st3" points="89.2 61.1 91.4 91.7 61.1 89.2"/>
    </g>
  </g>
</svg>